<?xml version="1.0" encoding="UTF-8" standalone="no"?>
<svg
   xmlns:dc="http://purl.org/dc/elements/1.1/"
   xmlns:cc="http://creativecommons.org/ns#"
   xmlns:rdf="http://www.w3.org/1999/02/22-rdf-syntax-ns#"
   xmlns:svg="http://www.w3.org/2000/svg"
   xmlns="http://www.w3.org/2000/svg"
   xmlns:sodipodi="http://sodipodi.sourceforge.net/DTD/sodipodi-0.dtd"
   xmlns:inkscape="http://www.inkscape.org/namespaces/inkscape"
   version="1.1"
   width="464"
   height="128"
   id="svg3979"
   inkscape:version="0.48.4 r9939"
   sodipodi:docname="myou_logo_tex_noborder.svg">
  <metadata
     id="metadata3997">
    <rdf:RDF>
      <cc:Work
         rdf:about="">
        <dc:format>image/svg+xml</dc:format>
        <dc:type
           rdf:resource="http://purl.org/dc/dcmitype/StillImage" />
        <dc:title></dc:title>
      </cc:Work>
    </rdf:RDF>
  </metadata>
  <defs
     id="defs3995" />
  <sodipodi:namedview
     pagecolor="#ffffff"
     bordercolor="#666666"
     borderopacity="1"
     objecttolerance="10"
     gridtolerance="10"
     guidetolerance="10"
     inkscape:pageopacity="0"
     inkscape:pageshadow="2"
     inkscape:window-width="1366"
     inkscape:window-height="743"
     id="namedview3993"
     showgrid="false"
     inkscape:zoom="1.5991379"
     inkscape:cx="285.4435"
     inkscape:cy="80.389325"
     inkscape:window-x="1600"
     inkscape:window-y="132"
     inkscape:window-maximized="1"
     inkscape:current-layer="svg3979" />
  <path
     d="m 416,0 0,48 -16,0 0,16 -16,0 0,32 32,0 0,-16 16,0 0,16 16,0 0,-48 16,0 0,-48 -16,0 0,16 -16,0 0,-16 z m -32,64 0,-32 -16,0 0,-16 -16,0 0,32 16,0 0,16 z m -224,-16 0,48 64,0 0,-48 z M 0,64 l 0,32 16,0 0,-16 16,0 0,16 16,0 0,-16 16,0 0,16 16,0 0,-32 z m 96,0 0,32 32,0 0,32 16,0 0,-64 -16,0 0,16 -16,0 0,-16 z m 80,0 32,0 0,16 -32,0 z m 64,0 0,32 64,0 0,-32 -16,0 0,16 -32,0 0,-16 z m 96,16 0,16 16,0 0,-16 z"
     id="path3981"
     style="stroke:none;fill:#696969;fill-opacity:1;color:#000000;fill-rule:nonzero;stroke-width:1;marker:none;visibility:visible;display:inline;overflow:visible;enable-background:accumulate;opacity:1" />
  <path
     style="fill:#b1c151;color:#000000;fill-opacity:1;fill-rule:nonzero;stroke:none;marker:none;visibility:visible;display:inline;overflow:visible;enable-background:accumulate"
     d="m 416,16 16,0 0,16 -16,0 z"
     id="path3983" />
  <path
     style="fill:#eec151;color:#000000;fill-opacity:1;fill-rule:nonzero;stroke:none;marker:none;visibility:visible;display:inline;overflow:visible;enable-background:accumulate"
     d="m 448,16 16,0 0,16 -16,0 z"
     id="path3985" />
  <path
     style="fill:#94bdec;color:#000000;fill-opacity:1;fill-rule:nonzero;stroke:none;marker:none;visibility:visible;display:inline;overflow:visible;enable-background:accumulate"
     d="m 192,48 16,0 0,16 -16,0 z"
     id="path3987" />
  <path
     style="fill:#c188cf;fill-opacity:1;color:#000000;fill-rule:nonzero;stroke:none;marker:none;visibility:visible;display:inline;overflow:visible;enable-background:accumulate"
     d="m 96,80 16,0 0,16 -16,0 z"
     id="path3989" />
  <path
     style="fill:#db8851;color:#000000;fill-opacity:1;fill-rule:nonzero;stroke:none;marker:none;visibility:visible;display:inline;overflow:visible;enable-background:accumulate"
     d="m 288,80 16,0 0,16 -16,0 z"
     id="path3991" />
</svg>
