<?xml version="1.0" encoding="UTF-8" standalone="no"?>
<svg
   xmlns:dc="http://purl.org/dc/elements/1.1/"
   xmlns:cc="http://creativecommons.org/ns#"
   xmlns:rdf="http://www.w3.org/1999/02/22-rdf-syntax-ns#"
   xmlns:svg="http://www.w3.org/2000/svg"
   xmlns="http://www.w3.org/2000/svg"
   version="1.1"
   id="svg4138"
   viewBox="0 0 63.999999 63.999999"
   height="64"
   width="64">
  <defs
     id="defs4140" />
  <metadata
     id="metadata4143">
    <rdf:RDF>
      <cc:Work
         rdf:about="">
        <dc:format>image/svg+xml</dc:format>
        <dc:type
           rdf:resource="http://purl.org/dc/dcmitype/StillImage" />
        <dc:title></dc:title>
      </cc:Work>
    </rdf:RDF>
  </metadata>
  <g
     transform="translate(0,-988.3622)"
     id="layer1">
    <path
       id="path3981"
       d="m 32.071219,996.28469 0,24.05471 -8.017856,0 0,8.0183 -8.017859,0 0,16.0363 16.035715,0 0,-8.0183 8.017858,0 0,8.0183 8.017857,0 0,-24.0546 8.017856,0 0,-24.05471 -8.017856,0 0,8.01841 -8.017857,0 0,-8.01841 z m -16.035715,32.07301 0,-16.0365 -8.0178574,0 0,-8.0181 -8.01785672026,0 0,16.0363 8.01785672026,0 0,8.0183 z"
       style="color:#000000;display:inline;overflow:visible;visibility:visible;opacity:1;fill:#696969;fill-opacity:1;fill-rule:nonzero;stroke:none;stroke-width:1;marker:none;enable-background:accumulate" />
    <path
       id="path3983"
       d="m 32.071219,1004.3031 8.017858,0 0,8.0181 -8.017858,0 z"
       style="color:#000000;display:inline;overflow:visible;visibility:visible;fill:#b1c151;fill-opacity:1;fill-rule:nonzero;stroke:none;marker:none;enable-background:accumulate" />
    <path
       id="path3985"
       d="m 48.106934,1004.3031 8.017856,0 0,8.0181 -8.017856,0 z"
       style="color:#000000;display:inline;overflow:visible;visibility:visible;fill:#eec151;fill-opacity:1;fill-rule:nonzero;stroke:none;marker:none;enable-background:accumulate" />
  </g>
</svg>
